
        <svg xmlns="http://www.w3.org/2000/svg" xmlns:xlink="http://www.w3.org/1999/xlink" version="1.1" width="3171.4285714285716" 
        height="2030.4933421638875" viewBox="0 0 3171.4285714285716 2030.4933421638875">
			<rect fill="#eff1f2" width="3171.4285714285716" height="2030.4933421638875"/>
			<g transform="scale(8.571428571428573) translate(10, 10)">
				<defs id="SvgjsDefs2406"></defs><g id="SvgjsG2407" featureKey="nameFeature-0" transform="matrix(5.329774202123209,0,0,5.329774202123209,-0.9559449774082457,-54.50119761101681)" fill="#1c2e40"><path d="M18.16 12.96 c-0.12 0.32 -12.88 27.72 -14.92 34.28 c-0.12 0.36 0.52 0.6 0.24 1.04 c0 0 -0.36 0.24 -0.92 0.16 c-0.52 -0.12 -0.44 -0.8 -0.44 -0.8 c0.4 -2.08 3.72 -9.96 7.16 -17.76 c-0.88 1.56 -1.68 2.92 -2.28 3.88 c0.08 0.12 0.12 0.32 0.04 0.52 c-0.16 0.36 -0.36 0.32 -0.52 0.24 c-0.08 0.08 -0.16 0.2 -0.24 0.28 l-0.28 0.4 c-1.4 1.8 -2.64 3.36 -3.96 3.48 c-0.04 0.04 -0.12 0.04 -0.2 0.04 c-0.4 0 -0.8 -0.16 -1.16 -0.44 c-0.44 -0.4 -0.6 -1.04 -0.44 -1.88 c0.32 -1.52 1.72 -3.48 3.44 -3.96 c0.64 -0.16 1.56 -0.2 2.48 0.48 c2.56 -4.08 8.8 -15.8 9.16 -16.48 c1 -2.2 1.68 -3.68 1.8 -3.96 c0 0 0.36 -0.36 0.76 -0.16 c0.44 0.2 0.28 0.64 0.28 0.64 z M5.4 34.08 c0.04 -0.04 0.2 -0.32 0.24 -0.36 c-0.32 -0.28 -1.2 -0.52 -1.72 -0.4 c-1.2 0.24 -2.28 2.16 -2.56 3.32 c-0.08 0.4 -0.04 0.68 0.04 0.72 c0.24 0.2 0.4 0.2 0.52 0.2 c0.84 -0.12 2.08 -1.68 3.16 -3.08 z M21.852 36.04 c0 0 0.32 -0.16 0.48 0 c0.16 0.2 0 0.44 0 0.44 c-1.04 1.24 -4 3.6 -5.6 3.6 c-0.52 0 -0.84 -0.2 -0.96 -0.4 c-0.36 -0.4 -0.56 -1.16 0.44 -3.68 c-3 3.48 -3.96 3.16 -4.32 3.08 c-0.24 -0.08 -0.68 -0.36 -0.76 -1.16 l0 -0.04 c-0.08 -1.68 4.32 -6.32 5.16 -6.24 c0 0 0.6 0.16 0.56 0.44 c0 0.52 -0.52 0.72 -0.72 0.68 c-0.76 -0.36 -3.92 3.76 -3.84 5.08 l0 0.12 c0.48 -0.12 1.88 -1.2 4.08 -3.96 c0.64 -0.84 1.16 -1.44 1.44 -1.8 c0.36 -0.4 0.68 -0.8 1.12 -0.44 c0.16 0.12 0.36 0.4 0.12 0.8 c-1.52 2.88 -2.6 5.76 -2.4 6.36 c0.16 0.6 1.2 0.28 2.56 -0.64 c1 -0.68 2.08 -1.6 2.64 -2.24 z M27.744 32.92 c-0.2 0.84 -0.56 1.36 -0.88 1.4 c-0.84 0.16 -0.2 -0.96 -0.28 -1.4 c-0.12 -0.64 -1.12 0 -1.12 0.52 c0 0.84 0.32 1.72 1 2.6 l0.12 0.04 c1.8 -1.48 5.4 -2.4 5.44 -2.4 c0 0 0.2 0.04 0.2 0.2 c0.04 0.12 -0.16 0.4 -0.16 0.4 c-1.28 0 -5 2.6 -5.12 2.6 c0.88 1.48 0 3.8 -1.48 4.72 c-0.6 0.52 -1.36 0.84 -2.2 0.96 c-1.04 -0.16 -1.56 -0.48 -1.56 -1 l0 -0.28 c0 -0.8 3.36 -3.92 3.96 -4.4 c0.08 -0.12 0.08 -0.08 0.08 -0.2 c-0.92 -1.32 -1.36 -2.36 -1.36 -3.16 c0.24 -2.84 3.36 -1.64 3.36 -0.6 z M22.864 41.44 l0 0.04 c0 0.12 0.16 0.2 0.4 0.2 c1.04 0 3.6 -2.32 3.08 -3.92 l0.04 -0.36 l-0.24 0.36 c-1.84 1.48 -3.28 3.28 -3.28 3.68 z M41.196 34.16 c0.36 0.32 -0.16 0.6 -0.16 0.6 c-0.48 0.6 -5.08 5.24 -7.76 5.24 c-0.32 0 -0.6 -0.08 -0.84 -0.2 c-0.4 -0.2 -1.04 -0.76 -0.92 -2.16 c0.2 -2 1.96 -4.96 3.8 -5.6 c0.8 -0.28 1.48 -0.24 1.92 0.16 c0.8 0.68 0.08 1.92 0.04 2.08 c0 0 -0.2 0.4 -0.64 0.36 c-0.4 0 -0.68 -0.48 -0.68 -0.48 l0 0 c0.08 -0.32 0.72 -0.92 0.56 -1.08 c-0.16 -0.12 -0.44 -0.08 -0.84 0.04 c-1.24 0.44 -2.84 2.92 -3 4.64 c-0.04 0.36 0 1.2 0.32 1.36 c1.16 0.64 5.92 -2.76 7.28 -4.44 c0 0 0.4 -0.96 0.92 -0.52 z M42.047999999999995 39.72 c-0.4 0 -0.72 -0.2 -0.84 -0.56 c-0.6 -1.52 2.56 -6.4 2.96 -7.44 c0 0 0.44 -1.08 1.16 -1 c0.76 0.08 0.96 0.96 0.8 1.32 c-0.12 0.32 -0.88 0.56 -0.96 0.68 c-1.08 2.44 -3.04 4.84 -2.96 5.84 c1.2 0.8 5.12 -2.92 6.52 -4.24 c0.12 -0.08 0.28 -0.56 0.6 -0.44 c0.4 0.16 0.12 0.52 -0.04 0.68 c-1.32 1.4 -5.08 5.2 -7.16 5.16 l-0.08 0 z M47.047999999999995 28.32 c0 0.4 0 0.76 -0.36 0.76 c-0.32 0 -0.6 -0.36 -0.6 -0.76 c0 -0.44 0.28 -0.76 0.6 -0.76 c0.36 0 0.52 0.36 0.36 0.76 z M65.69999999999999 33.64 c0.44 0.36 -0.24 0.76 -0.24 0.76 c0 0.08 -0.28 0.4 -0.72 0.92 c-1.88 2.36 -7.04 8.44 -10 8.44 l-0.28 0 c-0.96 -0.08 -1.72 -0.48 -2.28 -1.2 c-0.84 -1.08 -0.4 -3.52 0.04 -5.12 c-2.6 4.2 -4.8 9.44 -5.92 12.4 c0 0.2 -0.08 0.44 -0.08 0.56 c0 0 -0.04 0.52 -0.52 0.52 c-0.52 0 -0.6 -0.64 -0.6 -0.64 c0 -0.16 0.08 -0.64 0.12 -0.8 c1.72 -8 16.08 -36.92 16.92 -38.68 c0 0 0.12 -0.68 0.6 -0.56 c0.8 0.24 0.44 1.04 0.44 1.04 c-4.68 9.76 -7.24 14.4 -12.04 25.72 c0.2 -0.36 0.4 -0.72 0.64 -1.04 c0 0 -0.16 -0.2 0 -0.4 c0.12 -0.16 0.16 0 0.24 0 c2.6 -3.88 5.08 -5.84 7.32 -5.88 c1.24 0 2 0.28 2.28 0.8 c0.16 0.28 0.28 0.72 -0.08 1.32 c-0.92 1.6 -4.88 3.8 -7.84 4.6 c-0.56 1.48 -2.08 6.44 0.84 6.64 c2.16 0.16 6.8 -4.64 8.96 -7.24 c0.32 -0.36 1.88 -2.44 2.2 -2.16 z M59.339999999999996 30.84 c-1.84 0 -3.8 1.84 -5.64 4.4 c2.28 -0.68 5.2 -2.28 6.44 -3.52 c0.36 -0.4 0.48 -0.6 0.48 -0.68 c-0.08 -0.04 -0.36 -0.2 -1.24 -0.2 l-0.04 0 z"></path></g>
			</g>
		</svg>
	